HIERARCHY
ROOT hip
{
  OFFSET 0 0 0
  CHANNELS 6 Xposition Yposition Zposition Zrotation Yrotation Xrotation
  JOINT abdomen
  {
    OFFSET 0 20.6881 -0.73152
    CHANNELS 3 Zrotation Xrotation Yrotation
    JOINT chest
    {
      OFFSET 0 11.7043 -0.48768
      CHANNELS 3 Zrotation Xrotation Yrotation
      JOINT neck
      {
        OFFSET 0 22.1894 -2.19456
        CHANNELS 3 Zrotation Xrotation Yrotation
        JOINT head
        {
          OFFSET -0.24384 7.07133 1.2192
          CHANNELS 3 Zrotation Xrotation Yrotation
          JOINT leftEye
          {
            OFFSET 4.14528 8.04674 8.04672
            CHANNELS 3 Zrotation Xrotation Yrotation
            End Site
            {
              OFFSET 1 0 0
            }
          }
          JOINT rightEye
          {
            OFFSET -3.6576 8.04674 8.04672
            CHANNELS 3 Zrotation Xrotation Yrotation
            End Site
            {
              OFFSET 1 0 0
            }
          }
        }
      }
      JOINT rCollar
      {
        OFFSET -2.68224 19.2634 -4.8768
        CHANNELS 3 Zrotation Xrotation Yrotation
        JOINT rShldr
        {
          OFFSET -8.77824 -1.95073 1.46304
          CHANNELS 3 Zrotation Xrotation Yrotation
          JOINT rForeArm
          {
            OFFSET -28.1742 -1.7115 0.48768
            CHANNELS 3 Zrotation Xrotation Yrotation
            JOINT rHand
            {
              OFFSET -22.5879 0.773209 7.07136
              CHANNELS 3 Zrotation Xrotation Yrotation
              JOINT rThumb1
              {
                OFFSET -1.2192 -0.487915 3.41376
                CHANNELS 3 Zrotation Xrotation Yrotation
                JOINT rThumb2
                {
                  OFFSET -3.37035 -0.52449 3.41376
                  CHANNELS 3 Zrotation Xrotation Yrotation
                  End Site
                  {
                    OFFSET -1.78271 -1.18214 1.43049
                  }
                }
              }
              JOINT rIndex1
              {
                OFFSET -7.75947 0.938293 5.60832
                CHANNELS 3 Zrotation Xrotation Yrotation
                JOINT rIndex2
                {
                  OFFSET -2.54057 -0.884171 1.56538
                  CHANNELS 3 Zrotation Xrotation Yrotation
                  End Site
                  {
                    OFFSET -1.62519 -0.234802 1.16502
                  }
                }
              }
              JOINT rMid1
              {
                OFFSET -8.24714 1.18213 3.41376
                CHANNELS 3 Zrotation Xrotation Yrotation
                JOINT rMid2
                {
                  OFFSET -3.10165 -0.590103 1.0647
                  CHANNELS 3 Zrotation Xrotation Yrotation
                  End Site
                  {
                    OFFSET -2.48547 -0.328903 0.83742
                  }
                }
              }
              JOINT rRing1
              {
                OFFSET -8.82822 0.546677 1.51678
                CHANNELS 3 Zrotation Xrotation Yrotation
                JOINT rRing2
                {
                  OFFSET -2.60934 -0.819778 -0.0198488
                  CHANNELS 3 Zrotation Xrotation Yrotation
                  End Site
                  {
                    OFFSET -2.33842 -0.294052 0.168128
                  }
                }
              }
              JOINT rPinky1
              {
                OFFSET -8.27202 -0.0477905 -0.4584
                CHANNELS 3 Zrotation Xrotation Yrotation
                JOINT rPinky2
                {
                  OFFSET -1.82734 -0.647385 -0.700984
                  CHANNELS 3 Zrotation Xrotation Yrotation
                  End Site
                  {
                    OFFSET -1.69225 -0.51767 -0.607171
                  }
                }
              }
            }
          }
        }
      }
      JOINT lCollar
      {
        OFFSET 2.68224 19.2634 -4.8768
        CHANNELS 3 Zrotation Xrotation Yrotation
        JOINT lShldr
        {
          OFFSET 8.77824 -1.95073 1.46304
          CHANNELS 3 Zrotation Xrotation Yrotation
          JOINT lForeArm
          {
            OFFSET 28.1742 -1.7115 0.48768
            CHANNELS 3 Zrotation Xrotation Yrotation
            JOINT lHand
            {
              OFFSET 22.5879 0.773209 7.07136
              CHANNELS 3 Zrotation Xrotation Yrotation
              JOINT lThumb1
              {
                OFFSET 1.2192 -0.487915 3.41376
                CHANNELS 3 Zrotation Xrotation Yrotation
                JOINT lThumb2
                {
                  OFFSET 3.37035 -0.52449 3.41376
                  CHANNELS 3 Zrotation Xrotation Yrotation
                  End Site
                  {
                    OFFSET 1.78271 -1.18214 1.43049
                  }
                }
              }
              JOINT lIndex1
              {
                OFFSET 7.75947 0.938293 5.60832
                CHANNELS 3 Zrotation Xrotation Yrotation
                JOINT lIndex2
                {
                  OFFSET 2.54057 -0.884171 1.56538
                  CHANNELS 3 Zrotation Xrotation Yrotation
                  End Site
                  {
                    OFFSET 1.62519 -0.234802 1.16502
                  }
                }
              }
              JOINT lMid1
              {
                OFFSET 8.24714 1.18213 3.41376
                CHANNELS 3 Zrotation Xrotation Yrotation
                JOINT lMid2
                {
                  OFFSET 3.10165 -0.590103 1.0647
                  CHANNELS 3 Zrotation Xrotation Yrotation
                  End Site
                  {
                    OFFSET 2.48547 -0.328903 0.83742
                  }
                }
              }
              JOINT lRing1
              {
                OFFSET 8.82822 0.546677 1.51678
                CHANNELS 3 Zrotation Xrotation Yrotation
                JOINT lRing2
                {
                  OFFSET 2.60934 -0.819778 -0.0198488
                  CHANNELS 3 Zrotation Xrotation Yrotation
                  End Site
                  {
                    OFFSET 2.33842 -0.294052 0.168128
                  }
                }
              }
              JOINT lPinky1
              {
                OFFSET 8.27202 -0.0477905 -0.4584
                CHANNELS 3 Zrotation Xrotation Yrotation
                JOINT lPinky2
                {
                  OFFSET 1.82734 -0.647385 -0.700984
                  CHANNELS 3 Zrotation Xrotation Yrotation
                  End Site
                  {
                    OFFSET 1.69225 -0.51767 -0.607171
                  }
                }
              }
            }
          }
        }
      }
    }
  }
  JOINT rButtock
  {
    OFFSET -8.77824 4.35084 1.2192
    CHANNELS 3 Zrotation Xrotation Yrotation
    JOINT rThigh
    {
      OFFSET 0 -1.70687 -2.19456
      CHANNELS 3 Zrotation Xrotation Yrotation
      JOINT rShin
      {
        OFFSET 0 -36.8199 0.73152
        CHANNELS 3 Zrotation Xrotation Yrotation
        JOINT rFoot
        {
          OFFSET 0.73152 -45.1104 -5.12064
          CHANNELS 3 Zrotation Xrotation Yrotation
          End Site
          {
            OFFSET -1.1221 -3.69964 12.103
          }
        }
      }
    }
  }
  JOINT lButtock
  {
    OFFSET 8.77824 4.35084 1.2192
    CHANNELS 3 Zrotation Xrotation Yrotation
    JOINT lThigh
    {
      OFFSET 0 -1.70687 -2.19456
      CHANNELS 3 Zrotation Xrotation Yrotation
      JOINT lShin
      {
        OFFSET 0 -36.8199 0.73152
        CHANNELS 3 Zrotation Xrotation Yrotation
        JOINT lFoot
        {
          OFFSET -0.73152 -45.1104 -5.12064
          CHANNELS 3 Zrotation Xrotation Yrotation
          End Site
          {
            OFFSET 1.1221 -3.69964 12.103
          }
        }
      }
    }
  }
}
MOTION
Frames:	4
Frame Time:	0.00833333
-128.603 85.2982 -16.3368 0.0 0.0 0.0 0.984368 -0.00436087 0.0272517 0.271549 -0.00455328 0.0470451 3.73951e-14 7.95139e-16 -3.60297e-16 1.12127e-13 9.54166e-15 -1.09797e-15 -0.0 0.0 0.0 -0.0 0.0 0.0 1.87345e-14 -4.03781e-17 -9.93923e-17 3.93293e-13 -4.9075e-16 -1.59028e-15 6.74735e-12 -2.04271e-12 -1.24042e-13 7.71935e-11 1.86492e-12 -6.42472e-13 1.82091e-10 -3.92596e-13 -1.66025e-12 3.14453e-10 -6.80639e-13 -2.8784e-12 1.82097e-10 -3.91208e-13 -1.67615e-12 7.73091 5.47488 0.417314 1.8209e-10 -3.93097e-13 -1.66025e-12 2.90554 0.965183 0.102902 1.82093e-10 -3.925e-13 -1.66343e-12 10.2786 0.731801 0.0259123 1.82087e-10 -3.91208e-13 -1.65389e-12 2.22167 -0.733487 -0.20892 1.86382e-14 -4.07664e-17 -2.98177e-16 3.90937e-13 -1.08089e-15 -3.57812e-15 6.747e-12 1.98526e-12 -1.43125e-13 7.72123e-11 -2.18763e-12 -5.97944e-13 1.82135e-10 -4.38578e-13 -1.66025e-12 3.1455e-10 -7.60153e-13 -2.86807e-12 1.82132e-10 -4.39314e-13 -1.65389e-12 -7.73091 5.47488 -0.417314 1.82135e-10 -4.38718e-13 -1.66025e-12 -2.90554 0.965183 -0.102902 1.82123e-10 -4.38519e-13 -1.66025e-12 -10.2786 0.731801 -0.0259123 1.82139e-10 -4.36929e-13 -1.66979e-12 -2.22167 -0.733487 0.20892 -2.03217e-16 0.0 -3.88251e-19 1.24866 -5.453 -0.109156 7.03858e-05 4.32238 0.0238907 -0.510498 1.1295 0.0812126 2.03217e-16 0.0 3.88251e-19 0.249504 -1.91924 0.012926 0.00928487 -2.07855 0.0766951 0.49643 3.99654 -0.137971
-126.228 82.1132 -27.0516 134.952 75.4198 156.933 1.50336 6.42069 -0.255233 0.033262 -0.134196 0.0754557 -0.742234 -3.09435 -0.324107 0.8792 3.5084 -0.21658 -0.0 0.0 0.0 -0.0 0.0 0.0 2.10305e-14 -4.95347e-15 -2.63607e-14 20.7294 6.47355 3.43381 -4.19798 -1.90305 6.56169 0.129496 -8.07545 -1.09622 -8.96365e-12 1.6414e-10 -4.29302e-10 -5.97342e-12 2.88308e-10 -7.45212e-10 -8.95901e-12 1.64143e-10 -4.2932e-10 7.73091 5.47488 0.417314 -8.96436e-12 1.64141e-10 -4.29304e-10 2.90554 0.965183 0.102902 -8.96201e-12 1.64141e-10 -4.29305e-10 10.2786 0.731801 0.0259123 -8.96873e-12 1.64142e-10 -4.29296e-10 2.22167 -0.733487 -0.20892 2.09456e-14 -4.95917e-15 -2.66049e-14 -20.3674 23.907 -9.06873 8.68418 -5.56681 -11.3499 -0.0562472 -5.28135 0.731017 -2.36442e-10 -4.71277e-10 1.61419e-10 -4.10801e-10 -8.12443e-10 2.75063e-10 -2.36444e-10 -4.71277e-10 1.61429e-10 -7.73091 5.47488 -0.417314 -2.36442e-10 -4.71277e-10 1.61419e-10 -2.90554 0.965183 -0.102902 -2.36454e-10 -4.71279e-10 1.61422e-10 -10.2786 0.731801 -0.0259123 -2.36438e-10 -4.71275e-10 1.61409e-10 -2.22167 -0.733487 0.20892 -2.03217e-16 0.0 -3.88251e-19 -1.69723 -15.7024 -4.89801 0.0387889 14.1627 0.222926 -0.973529 -2.81006 -3.93426 2.03217e-16 0.0 3.88251e-19 2.92717 -13.7504 2.21091 0.0014519 7.95163 -0.0634655 0.647209 1.75993 2.38484
-126.359 82.0237 -26.8876 142.173 76.7234 163.669 2.13224 13.1669 -0.54288 -0.244814 -0.264051 0.111348 -1.55176 -6.35134 -0.682866 1.83691 7.22523 -0.47905 -0.0 0.0 0.0 -0.0 0.0 0.0 2.54564e-14 2.4917e-14 -5.45415e-14 41.799 13.1622 7.19757 -8.15982 -3.82776 13.5131 -0.0834221 -16.4673 -2.31216 -2.55751e-10 3.46078e-10 -9.11037e-10 -4.21417e-10 6.08842e-10 -1.58249e-09 -2.55748e-10 3.46082e-10 -9.11055e-10 7.73091 5.47488 0.417314 -2.55751e-10 3.46079e-10 -9.11041e-10 2.90554 0.965183 0.102902 -2.5575e-10 3.46079e-10 -9.11039e-10 10.2786 0.731801 0.0259123 -2.55757e-10 3.46081e-10 -9.11031e-10 2.22167 -0.733487 -0.20892 2.53845e-14 2.49054e-14 -5.48366e-14 -30.4912 46.7342 -25.2444 15.4865 -10.7071 -23.662 0.0337857 -10.91 1.5316 -7.23777e-10 -1.03657e-09 3.47141e-10 -1.25526e-09 -1.78687e-09 5.91376e-10 -7.23778e-10 -1.03657e-09 3.47156e-10 -7.73091 5.47488 -0.417314 -7.23777e-10 -1.03657e-09 3.47143e-10 -2.90554 0.965183 -0.102902 -7.23789e-10 -1.03658e-09 3.47148e-10 -10.2786 0.731801 -0.0259123 -7.23774e-10 -1.03657e-09 3.47131e-10 -2.22167 -0.733487 0.20892 -2.03217e-16 0.0 -3.88251e-19 -6.86042 -26.2223 -10.7077 -0.00181338 24.5728 0.461299 -2.07027 -6.93645 -8.23821 2.03217e-16 0.0 3.88251e-19 6.85124 -26.1494 4.89769 0.0485115 18.5114 -0.221189 1.01746 -0.580776 5.04217
-126.415 81.9564 -26.4857 156.037 78.235 176.607 2.7408 19.269 -0.863793 -0.442925 -0.39348 0.132279 -2.33291 -9.28184 -0.983785 2.71833 10.5246 -0.65962 -0.0 0.0 0.0 -0.0 0.0 0.0 2.56224e-14 -1.47797e-14 -7.88834e-14 59.7594 19.1335 10.8412 -11.31 -5.41025 19.7659 -0.613795 -24.1891 -3.56985 -3.91073e-10 4.93206e-10 -1.28459e-09 -6.46826e-10 8.66285e-10 -2.22988e-09 -3.91072e-10 4.93212e-10 -1.28461e-09 7.73091 5.47488 0.417314 -3.91073e-10 4.93209e-10 -1.28459e-09 2.90554 0.965183 0.102902 -3.91072e-10 4.93208e-10 -1.28459e-09 10.2786 0.731801 0.0259123 -3.9108e-10 4.93209e-10 -1.28458e-09 2.22167 -0.733487 -0.20892 2.55602e-14 -1.4796e-14 -7.92184e-14 -19.0377 59.9399 -57.0469 19.7067 -14.0722 -35.086 0.249013 -15.8335 2.26991 -1.0736e-09 -1.41295e-09 4.87576e-10 -1.8615e-09 -2.43581e-09 8.30925e-10 -1.0736e-09 -1.41295e-09 4.87595e-10 -7.73091 5.47488 -0.417314 -1.0736e-09 -1.41295e-09 4.87579e-10 -2.90554 0.965183 -0.102902 -1.07361e-09 -1.41296e-09 4.87586e-10 -10.2786 0.731801 -0.0259123 -1.07359e-09 -1.41295e-09 4.87566e-10 -2.22167 -0.733487 0.20892 -2.03217e-16 0.0 -3.88251e-19 -13.6738 -35.1346 -17.1161 -0.126594 33.8416 0.72336 -3.56587 -10.4743 -12.1565 2.03217e-16 0.0 3.88251e-19 11.5973 -37.1679 8.06217 0.146868 28.0115 -0.387217 1.53822 -2.686 7.43464
